<svg xmlns="http://www.w3.org/2000/svg" version="1.1" xmlns:xlink="http://www.w3.org/1999/xlink" xmlns:svgjs="http://svgjs.dev/svgjs" width="1000" height="1000" viewBox="0 0 1000 1000"><rect width="1000" height="1000" fill="#2979ff"></rect><g transform="matrix(0.7,0,0,0.7,149.57575883804077,374.95766115405723)"><svg viewBox="0 0 396 142" data-background-color="#2979ff" preserveAspectRatio="xMidYMid meet" height="358" width="1000" xmlns="http://www.w3.org/2000/svg" xmlns:xlink="http://www.w3.org/1999/xlink"><g id="tight-bounds" transform="matrix(1,0,0,1,0.23999937625728762,-0.14600113278584104)"><svg viewBox="0 0 395.52 142.29200226557165" height="142.29200226557165" width="395.52"><g><svg viewBox="0 0 680.4244395447218 244.78902683365664" height="142.29200226557165" width="395.52"><g><svg viewBox="0 0 395.52 244.78902683365664" height="244.78902683365664" width="395.52"><g id="textblocktransform"><svg viewBox="0 0 395.52 244.78902683365664" height="244.78902683365664" width="395.52" id="textblock"><g><svg viewBox="0 0 395.52 171.44088998763905" height="171.44088998763905" width="395.52"><g transform="matrix(1,0,0,1,0,0)"><svg width="395.52" viewBox="2.200000047683716 -39.20000076293945 121.34000396728516 52.599998474121094" height="171.44088998763905" data-palette-color="#ffffff"><path d="M16.3-4L16.3-4Q18.3-4 19.85-6.55 21.4-9.1 21.4-13.05 21.4-17 19.9-19.18 18.4-21.35 16.3-21.35L16.3-21.35Q14.95-21.35 13.73-20.48 12.5-19.6 11.75-18.1L11.75-18.1 11.75-6.3Q13.6-4 16.3-4ZM3.9 7.45L3.9 7.45 3.9-21.05Q3.9-23.65 2.2-24.6L2.2-24.6Q4.1-26.7 6.8-26.7L6.8-26.7Q10.75-26.7 11.5-23.1L11.5-23.1Q14.2-26.7 18.75-26.7 23.3-26.7 26.3-23.13 29.3-19.55 29.3-13.15 29.3-6.75 25.7-3.1 22.1 0.55 17.4 0.55L17.4 0.55Q14.3 0.55 11.75-1.2L11.75-1.2 11.75 7.7Q11.75 10.35 13.4 11.2L13.4 11.2Q11.55 13.4 8.8 13.4L8.8 13.4Q3.9 13.4 3.9 7.45ZM38.8-39.2Q40.75-39.2 42.02-38.02 43.3-36.85 43.3-34.93 43.3-33 41.67-31.4 40.05-29.8 37.95-29.8 35.85-29.8 34.57-31.03 33.3-32.25 33.3-34.25 33.3-36.25 35.07-37.73 36.85-39.2 38.8-39.2ZM42.4-20.75L42.4-20.75 42.4-5.15Q42.4-2.45 44.05-1.6L44.05-1.6Q42.15 0.55 39.45 0.55L39.45 0.55Q34.55 0.55 34.55-5.4L34.55-5.4 34.55-21.05Q34.55-23.65 32.85-24.55L32.85-24.55Q34.75-26.7 37.37-26.7 40-26.7 41.2-25.25 42.4-23.8 42.4-20.75ZM68-7.25L68-7.25Q68.9-6.2 68.9-4.25 68.9-2.3 67.52-1.15 66.15 0 63.1 0L63.1 0 54.75 0Q51.5 0 49.8-1.5 48.1-3 48.1-5.35L48.1-5.35Q48.1-6.75 48.67-7.8 49.25-8.85 50.7-10.15L50.7-10.15 62.4-20.5Q58.2-19.8 54.85-19.8 51.5-19.8 50.1-20.98 48.7-22.15 48.7-23.78 48.7-25.4 49.55-26.5L49.55-26.5Q51.8-26.15 54.35-26.15L54.35-26.15 62.55-26.15Q65.8-26.15 67.5-24.65 69.2-23.15 69.2-20.8L69.2-20.8Q69.2-19.45 68.62-18.4 68.05-17.35 66.59-16L66.59-16 54.7-5.5 63.1-5.95Q66.3-6.1 68-7.25ZM92.99-7.25L92.99-7.25Q93.89-6.2 93.89-4.25 93.89-2.3 92.52-1.15 91.14 0 88.09 0L88.09 0 79.74 0Q76.49 0 74.79-1.5 73.09-3 73.09-5.35L73.09-5.35Q73.09-6.75 73.67-7.8 74.24-8.85 75.69-10.15L75.69-10.15 87.39-20.5Q83.19-19.8 79.84-19.8 76.49-19.8 75.09-20.98 73.69-22.15 73.69-23.78 73.69-25.4 74.54-26.5L74.54-26.5Q76.79-26.15 79.34-26.15L79.34-26.15 87.54-26.15Q90.79-26.15 92.49-24.65 94.19-23.15 94.19-20.8L94.19-20.8Q94.19-19.45 93.62-18.4 93.04-17.35 91.59-16L91.59-16 79.69-5.5 88.09-5.95Q91.29-6.1 92.99-7.25ZM106.49-6.85L106.49-6.85Q106.49-4.4 109.29-4.4L109.29-4.4Q111.34-4.4 112.99-6.3L112.99-6.3 112.99-11.15Q106.49-10.8 106.49-6.85ZM120.84-17.7L120.84-17.7 120.84-6.35Q120.84-3.2 123.54-2.35L123.54-2.35Q122.64-1.1 121.12-0.28 119.59 0.55 117.89 0.55L117.89 0.55Q114.19 0.55 113.29-2.75L113.29-2.75Q110.19 0.55 105.54 0.55L105.54 0.55Q102.09 0.55 100.04-1.15 97.99-2.85 97.99-5.95L97.99-5.95Q97.99-9.75 101.97-12.03 105.94-14.3 112.99-14.4L112.99-14.4 112.99-19.15Q112.99-22.5 110.29-22.5L110.29-22.5Q109.19-22.5 108.47-21.83 107.74-21.15 107.74-20.03 107.74-18.9 108.54-17.95L108.54-17.95Q106.84-16.15 104.27-16.15 101.69-16.15 100.47-17.3 99.24-18.45 99.24-20.3L99.24-20.3Q99.24-23.1 102.67-24.9 106.09-26.7 110.67-26.7 115.24-26.7 118.04-24.55 120.84-22.4 120.84-17.7Z" opacity="1" transform="matrix(1,0,0,1,0,0)" fill="#ffffff" class="undefined-text-0" data-fill-palette-color="primary" id="text-0"></path></svg></g></svg></g><g transform="matrix(1,0,0,1,163.310208,211.91396953236094)"><svg viewBox="0 0 232.209792 32.87505730129572" height="32.87505730129572" width="232.209792"><g transform="matrix(1,0,0,1,0,0)"><svg width="232.209792" viewBox="2 -34.851783752441406 246.1422119140625 34.851783752441406" height="32.87505730129572" data-palette-color="#ffffff"><path d="M18.35 0L2.2 0Q2 0 2-0.25L2-0.25 2.05-34.6Q2.05-34.8 2.25-34.8L2.25-34.8 18.3-34.8Q18.5-34.8 18.5-34.55L18.5-34.55 18.5-28.95Q18.5-28.75 18.3-28.75L18.3-28.75 8.05-28.75 8.05-20.95 18.3-20.95Q18.5-20.95 18.5-20.75L18.5-20.75 18.55-15.1Q18.55-14.9 18.35-14.9L18.35-14.9 8.05-14.9 8.05-6.15 18.35-6.15Q18.55-6.15 18.55-5.9L18.55-5.9 18.55-0.2Q18.55 0 18.35 0L18.35 0ZM20.8-0.25L20.8-0.25 27-34.6Q27.05-34.8 27.25-34.8L27.25-34.8 34.5-34.8Q34.7-34.8 34.75-34.6L34.75-34.6 40.7-0.25Q40.75 0 40.5 0L40.5 0 34.95 0Q34.75 0 34.7-0.25L34.7-0.25 34.15-3.9 27.35-3.9 26.8-0.25Q26.75 0 26.55 0L26.55 0 21 0Q20.8 0 20.8-0.25ZM30.6-23.3L28.35-9.25 33.15-9.25 31.1-23.3 30.8-25.15 30.6-23.3ZM52.09 0L46.45 0Q46.25 0 46.25-0.25L46.25-0.25 46.25-28.75 39.74-28.75Q39.49-28.75 39.49-29L39.49-29 39.55-34.6Q39.55-34.8 39.74-34.8L39.74-34.8 58.75-34.8Q59-34.8 59-34.6L59-34.6 59-29Q59-28.75 58.8-28.75L58.8-28.75 52.25-28.75 52.3-0.25Q52.3 0 52.09 0L52.09 0ZM68.29-0.25L68.29-0.25 74.49-34.6Q74.54-34.8 74.74-34.8L74.74-34.8 81.99-34.8Q82.19-34.8 82.24-34.6L82.24-34.6 88.19-0.25Q88.24 0 87.99 0L87.99 0 82.44 0Q82.24 0 82.19-0.25L82.19-0.25 81.64-3.9 74.84-3.9 74.29-0.25Q74.24 0 74.04 0L74.04 0 68.49 0Q68.29 0 68.29-0.25ZM78.09-23.3L75.84-9.25 80.64-9.25 78.59-23.3 78.29-25.15 78.09-23.3ZM96.79 0L91.79 0Q91.39 0 91.39-0.35L91.39-0.35 91.34-34.4Q91.34-34.8 91.74-34.8L91.74-34.8 96.24-34.8 104.69-15.1 104.44-34.4Q104.44-34.8 104.89-34.8L104.89-34.8 109.84-34.8Q110.14-34.8 110.14-34.4L110.14-34.4 110.19-0.3Q110.19 0 109.94 0L109.94 0 105.54 0 96.89-18.4 97.24-0.4Q97.24 0 96.79 0L96.79 0ZM123.74-0.05L114.79 0Q114.54 0 114.54-0.25L114.54-0.25 114.64-34.6Q114.64-34.8 114.84-34.8L114.84-34.8 124.19-34.85Q126.94-34.9 129.21-33.55 131.49-32.2 132.84-29.93 134.19-27.65 134.19-24.9L134.19-24.9 134.19-10.55Q134.19-7.65 132.79-5.28 131.39-2.9 129.04-1.5 126.69-0.1 123.74-0.05L123.74-0.05ZM120.69-28.8L120.64-6.15 123.74-6.15Q125.59-6.15 126.86-7.45 128.14-8.75 128.14-10.55L128.14-10.55 128.14-24.95Q128.14-26.55 126.96-27.73 125.79-28.9 124.19-28.85L124.19-28.85 120.69-28.8ZM154.73-0.05L145.78 0Q145.53 0 145.53-0.25L145.53-0.25 145.63-34.6Q145.63-34.8 145.83-34.8L145.83-34.8 155.18-34.85Q157.93-34.9 160.21-33.55 162.48-32.2 163.83-29.93 165.18-27.65 165.18-24.9L165.18-24.9 165.18-10.55Q165.18-7.65 163.78-5.28 162.38-2.9 160.03-1.5 157.68-0.1 154.73-0.05L154.73-0.05ZM151.68-28.8L151.63-6.15 154.73-6.15Q156.58-6.15 157.86-7.45 159.13-8.75 159.13-10.55L159.13-10.55 159.13-24.95Q159.13-26.55 157.96-27.73 156.78-28.9 155.18-28.85L155.18-28.85 151.68-28.8ZM174.98 0L169.33 0Q169.13 0 169.13-0.25L169.13-0.25 169.23-34.6Q169.23-34.8 169.43-34.8L169.43-34.8 179.53-34.8Q182.23-34.8 184.5-33.48 186.78-32.15 188.13-29.93 189.48-27.7 189.48-24.9L189.48-24.9Q189.48-23.05 188.93-21.58 188.38-20.1 187.63-19.07 186.88-18.05 186.28-17.55L186.28-17.55Q188.98-14.55 188.98-10.5L188.98-10.5 189.03-0.25Q189.03 0 188.78 0L188.78 0 183.13 0Q182.93 0 182.93-0.15L182.93-0.15 182.93-10.5Q182.93-12.3 181.65-13.63 180.38-14.95 178.53-14.95L178.53-14.95 175.23-14.95 175.18-0.25Q175.18 0 174.98 0L174.98 0ZM175.23-28.8L175.23-20.95 179.53-20.95Q181.08-20.95 182.28-22.1 183.48-23.25 183.48-24.9L183.48-24.9Q183.48-26.5 182.3-27.65 181.13-28.8 179.53-28.8L179.53-28.8 175.23-28.8ZM199.13 0L193.48 0Q193.23 0 193.23-0.25L193.23-0.25 193.28-34.6Q193.28-34.8 193.48-34.8L193.48-34.8 199.08-34.8Q199.28-34.8 199.28-34.6L199.28-34.6 199.33-0.25Q199.33 0 199.13 0L199.13 0ZM209.17 0L204.17 0Q203.77 0 203.77-0.35L203.77-0.35 203.72-34.4Q203.72-34.8 204.12-34.8L204.12-34.8 208.62-34.8 217.07-15.1 216.82-34.4Q216.82-34.8 217.27-34.8L217.27-34.8 222.22-34.8Q222.52-34.8 222.52-34.4L222.52-34.4 222.57-0.3Q222.57 0 222.32 0L222.32 0 217.92 0 209.27-18.4 209.62-0.4Q209.62 0 209.17 0L209.17 0ZM232.77 0L227.12 0Q226.92 0 226.92-0.25L226.92-0.25 227.02-34.55Q227.02-34.8 227.22-34.8L227.22-34.8 232.82-34.8Q233.02-34.8 233.02-34.55L233.02-34.55 233.02-22.7 240.87-34.6Q241.02-34.8 241.22-34.8L241.22-34.8 246.97-34.8Q247.17-34.8 247.07-34.6L247.07-34.6 238.42-20.8 248.12-0.2Q248.22 0 247.87 0L247.87 0 241.77 0Q241.52 0 241.47-0.2L241.47-0.2 234.72-14.9 232.97-12.15 232.97-0.25Q232.97 0 232.77 0L232.77 0Z" opacity="1" transform="matrix(1,0,0,1,0,0)" fill="#ffffff" class="undefined-text-1" data-fill-palette-color="secondary" id="text-1"></path></svg></g></svg></g></svg></g></svg></g><g transform="matrix(1,0,0,1,435.99307954472187,22.321644387891766)"><svg viewBox="0 0 244.43136 200.1457380578731" height="200.1457380578731" width="244.43136"><g><svg xmlns="http://www.w3.org/2000/svg" xmlns:xlink="http://www.w3.org/1999/xlink" version="1.1" x="0" y="0" viewBox="0 9.059000015258789 100.0009994506836 81.88300323486328" enable-background="new 0 0 100 100" xml:space="preserve" width="244.43136" height="200.1457380578731" class="icon-icon-0" data-fill-palette-color="accent" id="icon-0"><path d="M88.009 13.874c-1.665-1.665-4.365-1.666-6.03 0-1.237 1.236-1.551 3.041-0.952 4.57L57.854 41.618c-0.488 0.486-0.634 1.221-0.37 1.858 0.087 0.211 0.215 0.397 0.369 0.553 0.313 0.313 0.745 0.5 1.206 0.5l32.772-0.001c0.215 0.491 0.516 0.937 0.889 1.31 0.772 0.771 1.839 1.25 3.017 1.249 2.354 0.001 4.265-1.909 4.264-4.264C100 31.886 95.741 21.607 88.009 13.874zM83.152 21.144c4.996 5.539 7.89 12.523 8.274 19.973H63.178L83.152 21.144z" fill="#ffffff" data-fill-palette-color="accent"></path><path d="M50.139 56.785c-0.666-0.666-1.746-0.666-2.413 0-0.665 0.666-0.665 1.747 0 2.412l10.086 10.086c0.667 0.668 1.747 0.666 2.413 0s0.667-1.746 0-2.412L50.139 56.785z" fill="#ffffff" data-fill-palette-color="accent"></path><path d="M40.941 59.596c-0.943 0-1.706 0.765-1.706 1.705l-0.001 14.266c0.001 0.471 0.191 0.896 0.5 1.205 0.309 0.309 0.736 0.5 1.207 0.5 0.942 0 1.706-0.764 1.706-1.705V61.301C42.646 60.36 41.882 59.596 40.941 59.596z" fill="#ffffff" data-fill-palette-color="accent"></path><path d="M31.742 56.785L21.655 66.871c-0.666 0.666-0.666 1.746 0.001 2.412 0.666 0.666 1.746 0.668 2.412 0l10.085-10.086c0.666-0.664 0.666-1.746 0-2.412C33.488 56.119 32.408 56.119 31.742 56.785z" fill="#ffffff" data-fill-palette-color="accent"></path><path d="M31.344 50c0-0.943-0.765-1.707-1.706-1.706H15.374c-0.941 0-1.705 0.763-1.705 1.706 0 0.471 0.19 0.898 0.5 1.205 0.309 0.309 0.736 0.5 1.206 0.5h14.265C30.58 51.705 31.344 50.942 31.344 50z" fill="#ffffff" data-fill-palette-color="accent"></path><path d="M24.068 30.716c-0.666-0.667-1.747-0.666-2.413 0-0.666 0.666-0.666 1.746 0 2.412l10.086 10.087c0.666 0.665 1.747 0.666 2.412 0 0.666-0.667 0.666-1.747 0-2.413L24.068 30.716z" fill="#ffffff" data-fill-palette-color="accent"></path><path d="M40.94 40.403c0.942 0 1.706-0.764 1.706-1.706V24.434c0-0.942-0.764-1.707-1.706-1.707-0.942 0-1.705 0.764-1.705 1.707l-0.001 14.264c0 0.47 0.191 0.897 0.5 1.207C40.042 40.213 40.469 40.403 40.94 40.403z" fill="#ffffff" data-fill-palette-color="accent"></path><path d="M80.117 48.294H45.058l24.793-24.79c0.666-0.667 0.666-1.747 0-2.412-0.002 0-0.002-0.001-0.002-0.002l0.04-0.039c0 0-0.002-0.001-0.002-0.003C62.155 13.317 51.877 9.059 40.94 9.059c-10.935 0-21.216 4.258-28.949 11.991C4.259 28.784 0 39.064 0 50c0 11.287 4.591 21.522 12.004 28.936 7.414 7.414 17.648 12.006 28.937 12.006 10.934 0 21.215-4.26 28.949-11.992C77.622 71.217 81.882 60.936 81.881 50h-0.058C81.823 49.057 81.06 48.294 80.117 48.294zM63.859 72.918c-6.123 6.121-14.262 9.494-22.919 9.494C23.07 82.412 8.53 67.871 8.528 50c0-8.658 3.372-16.798 9.494-22.919 6.122-6.122 14.261-9.493 22.918-9.493 8.088 0 15.722 2.943 21.681 8.321L39.733 48.792c-0.026 0.026-0.044 0.057-0.068 0.084-0.051 0.057-0.101 0.112-0.142 0.174-0.034 0.051-0.059 0.106-0.087 0.159-0.023 0.045-0.051 0.088-0.072 0.135-0.026 0.064-0.042 0.131-0.06 0.197-0.011 0.041-0.028 0.079-0.036 0.122-0.043 0.221-0.043 0.448 0 0.67 0.008 0.045 0.026 0.087 0.039 0.13 0.017 0.062 0.032 0.127 0.058 0.188 0.022 0.051 0.052 0.099 0.078 0.148 0.026 0.049 0.049 0.099 0.079 0.146 0.063 0.093 0.133 0.181 0.212 0.259 0.079 0.079 0.166 0.15 0.259 0.213 0.05 0.033 0.104 0.057 0.157 0.084 0.045 0.025 0.088 0.053 0.136 0.072 0.068 0.028 0.139 0.046 0.208 0.064 0.037 0.01 0.072 0.025 0.11 0.033 0.113 0.021 0.229 0.033 0.345 0.033h32.357C72.893 59.722 69.576 67.199 63.859 72.918z" fill="#ffffff" data-fill-palette-color="accent"></path></svg></g></svg></g></svg></g><defs></defs></svg><rect width="395.52" height="142.29200226557165" fill="none" stroke="none" visibility="hidden"></rect></g></svg></g></svg>